<?xml version="1.0" encoding="utf-8"?>
<!-- Generator: Adobe Illustrator 26.0.2, SVG Export Plug-In . SVG Version: 6.00 Build 0)  -->
<svg version="1.1" id="Layer_1" xmlns="http://www.w3.org/2000/svg" xmlns:xlink="http://www.w3.org/1999/xlink" x="0px" y="0px"
	 viewBox="0 0 94 40" style="enable-background:new 0 0 94 40;" xml:space="preserve">
<style type="text/css">
	.st0{fill:#FFFFFF;}
	.st1{fill:#00B67A;}
	.st2{fill:#005128;}
	.st3{fill:#FFAD00;}
</style>
<g>
	<path class="st0" d="M24,8.4h9.5v1.8h-3.7v10h-2v-10H24L24,8.4z M33.1,11.7h1.7v1.7h0c0.1-0.2,0.2-0.5,0.3-0.7
		c0.2-0.2,0.3-0.4,0.6-0.6c0.2-0.2,0.5-0.3,0.7-0.4c0.3-0.1,0.5-0.2,0.8-0.2c0.2,0,0.4,0,0.5,0c0.1,0,0.2,0,0.2,0v1.8
		c-0.1,0-0.3,0-0.4-0.1s-0.3,0-0.4,0c-0.3,0-0.6,0.1-0.9,0.2c-0.3,0.1-0.5,0.3-0.7,0.6c-0.2,0.3-0.4,0.6-0.5,0.9s-0.2,0.8-0.2,1.3
		v4.1H33L33.1,11.7z M46.6,20.2h-1.8V19h0c-0.2,0.4-0.6,0.8-1,1s-0.9,0.4-1.4,0.4c-1.1,0-1.9-0.3-2.4-0.8c-0.5-0.6-0.7-1.4-0.7-2.5
		v-5.4H41v5.3c0,0.8,0.1,1.3,0.4,1.6c0.3,0.3,0.7,0.5,1.2,0.5c0.4,0,0.7-0.1,1-0.2s0.5-0.3,0.6-0.5c0.2-0.2,0.3-0.5,0.4-0.7
		s0.1-0.6,0.1-0.9v-5h1.9L46.6,20.2L46.6,20.2z M49.8,17.5c0.1,0.6,0.3,0.9,0.6,1.2c0.4,0.2,0.8,0.3,1.3,0.3c0.2,0,0.4,0,0.6,0
		c0.2,0,0.4-0.1,0.6-0.2c0.2-0.1,0.4-0.2,0.5-0.3c0.1-0.2,0.2-0.3,0.2-0.6c0-0.2-0.1-0.4-0.3-0.6c-0.2-0.2-0.4-0.3-0.6-0.4
		c-0.2-0.1-0.5-0.2-0.9-0.2s-0.7-0.1-1-0.2c-0.3-0.1-0.7-0.2-1-0.3c-0.3-0.1-0.6-0.3-0.9-0.5c-0.2-0.2-0.5-0.4-0.6-0.7
		c-0.2-0.3-0.2-0.6-0.2-1.1c0-0.5,0.1-0.9,0.3-1.2c0.2-0.3,0.5-0.6,0.9-0.8s0.7-0.3,1.2-0.4s0.8-0.1,1.2-0.1c0.4,0,0.9,0,1.2,0.1
		c0.4,0.1,0.8,0.2,1.1,0.5c0.3,0.2,0.6,0.5,0.8,0.8c0.2,0.3,0.3,0.7,0.4,1.2h-1.9c-0.1-0.5-0.3-0.8-0.6-0.9
		c-0.3-0.2-0.7-0.2-1.1-0.2c-0.1,0-0.3,0-0.5,0c-0.2,0-0.3,0.1-0.5,0.1c-0.2,0.1-0.3,0.2-0.4,0.3S50,13.6,50,13.8
		c0,0.2,0.1,0.4,0.2,0.6s0.4,0.3,0.6,0.4c0.2,0.1,0.5,0.2,0.9,0.2s0.7,0.1,1,0.2c0.3,0.1,0.7,0.2,1,0.3s0.6,0.3,0.9,0.5
		c0.2,0.2,0.5,0.4,0.6,0.7s0.2,0.6,0.2,1.1c0,0.5-0.1,0.9-0.3,1.3c-0.2,0.3-0.5,0.6-0.9,0.9s-0.8,0.4-1.2,0.5
		c-0.5,0.1-0.9,0.2-1.3,0.2c-0.5,0-1-0.1-1.5-0.2S49.3,20,49,19.7c-0.3-0.3-0.6-0.6-0.8-0.9c-0.2-0.4-0.3-0.8-0.3-1.3L49.8,17.5
		L49.8,17.5L49.8,17.5z M56,11.7h1.4V9.1h1.9v2.6h1.7v1.4h-1.7v4.6c0,0.2,0,0.4,0,0.5c0,0.1,0.1,0.3,0.1,0.4
		c0.1,0.1,0.2,0.2,0.3,0.2c0.1,0,0.3,0.1,0.5,0.1c0.1,0,0.3,0,0.4,0c0.1,0,0.3,0,0.4-0.1v1.5c-0.2,0-0.4,0-0.6,0.1
		c-0.2,0-0.4,0-0.6,0c-0.5,0-0.9,0-1.2-0.1s-0.5-0.2-0.7-0.4c-0.2-0.2-0.3-0.4-0.3-0.7s-0.1-0.6-0.1-0.9v-5H56V11.7L56,11.7z
		 M62.2,11.7H64v1.2h0c0.3-0.5,0.6-0.9,1.1-1.1s1-0.3,1.5-0.3c0.7,0,1.2,0.1,1.7,0.4c0.5,0.2,0.9,0.6,1.2,1c0.3,0.4,0.6,0.9,0.7,1.5
		s0.2,1.2,0.2,1.8c0,0.6-0.1,1.1-0.2,1.7c-0.2,0.5-0.4,1-0.7,1.4s-0.7,0.7-1.1,1s-1,0.4-1.6,0.4c-0.3,0-0.5,0-0.8-0.1
		s-0.5-0.1-0.8-0.2s-0.5-0.3-0.7-0.4c-0.2-0.2-0.4-0.4-0.5-0.6h0v4.3h-1.9L62.2,11.7L62.2,11.7z M68.8,16c0-0.4,0-0.8-0.2-1.1
		c-0.1-0.4-0.2-0.7-0.5-1s-0.5-0.5-0.7-0.7c-0.3-0.2-0.6-0.3-1-0.3c-0.8,0-1.4,0.3-1.8,0.8c-0.4,0.6-0.6,1.3-0.6,2.2
		c0,0.4,0,0.8,0.2,1.2s0.2,0.7,0.5,0.9c0.2,0.3,0.5,0.5,0.7,0.6c0.3,0.2,0.6,0.2,1,0.2c0.4,0,0.8-0.1,1.1-0.3
		c0.3-0.2,0.5-0.4,0.7-0.7c0.2-0.3,0.3-0.6,0.4-1C68.7,16.7,68.8,16.3,68.8,16z M72.1,8.4h1.9v1.8h-1.9V8.4z M72.1,11.7h1.9v8.6
		h-1.9V11.7z M75.6,8.4h1.9v11.8h-1.9V8.4z M83.2,20.5c-0.7,0-1.3-0.1-1.8-0.3s-1-0.5-1.3-0.9c-0.4-0.4-0.6-0.9-0.8-1.4
		s-0.3-1.2-0.3-1.8c0-0.6,0.1-1.2,0.3-1.8c0.2-0.6,0.5-1,0.8-1.4c0.4-0.4,0.8-0.7,1.3-0.9c0.5-0.2,1.1-0.3,1.8-0.3
		c0.7,0,1.3,0.1,1.8,0.3c0.5,0.2,1,0.5,1.3,0.9c0.4,0.4,0.6,0.9,0.8,1.4s0.3,1.2,0.3,1.8c0,0.7-0.1,1.3-0.3,1.8s-0.5,1-0.8,1.4
		c-0.4,0.4-0.8,0.7-1.3,0.9C84.5,20.3,83.9,20.5,83.2,20.5z M83.2,19c0.4,0,0.8-0.1,1.1-0.3c0.3-0.2,0.5-0.4,0.7-0.7s0.3-0.6,0.4-1
		c0.1-0.4,0.1-0.7,0.1-1.1c0-0.4,0-0.7-0.1-1.1c-0.1-0.4-0.2-0.7-0.4-1s-0.5-0.5-0.7-0.7C84,13,83.6,13,83.2,13
		c-0.4,0-0.8,0.1-1.1,0.3c-0.3,0.2-0.5,0.4-0.7,0.7c-0.2,0.3-0.3,0.6-0.4,1c-0.1,0.4-0.1,0.7-0.1,1.1c0,0.4,0,0.7,0.1,1.1
		s0.2,0.7,0.4,1s0.5,0.5,0.7,0.7C82.4,18.9,82.8,19,83.2,19z M88,11.7h1.4V9.1h1.9v2.6H93v1.4h-1.7v4.6c0,0.2,0,0.4,0,0.5
		c0,0.1,0.1,0.3,0.1,0.4c0.1,0.1,0.2,0.2,0.3,0.2c0.1,0,0.3,0.1,0.5,0.1c0.1,0,0.3,0,0.4,0c0.1,0,0.3,0,0.4-0.1v1.5
		c-0.2,0-0.4,0-0.6,0.1c-0.2,0-0.4,0-0.6,0c-0.5,0-0.9,0-1.2-0.1s-0.5-0.2-0.7-0.4c-0.2-0.2-0.3-0.4-0.3-0.7
		c-0.1-0.3-0.1-0.6-0.1-0.9v-5H88L88,11.7L88,11.7z"/>
	<path class="st1" d="M22,8h-8.4L11,0.4L8.4,8H0l6.8,5.4l-2.6,8l6.8-5l6.8,5l-2.6-8L22,8z"/>
	<path class="st2" d="M15,15.2l-0.5-1.8l-3.5,3L15,15.2z"/>
	<g>
		<path class="st3" d="M31.5,33.7l-3.8,2l0.7-4.3l-3.1-3l4.3-0.6l1.9-3.9l1.9,3.9l4.3,0.6l-3.1,3l0.7,4.3L31.5,33.7z"/>
		<path class="st3" d="M45.5,33.7l-3.8,2l0.7-4.3l-3.1-3l4.3-0.6l1.9-3.9l1.9,3.9l4.3,0.6l-3.1,3l0.7,4.3L45.5,33.7z"/>
		<path class="st3" d="M59.5,33.7l-3.8,2l0.7-4.3l-3.1-3l4.3-0.6l1.9-3.9l1.9,3.9l4.3,0.6l-3.1,3l0.7,4.3L59.5,33.7z"/>
		<path class="st3" d="M73.5,33.7l-3.8,2l0.7-4.3l-3.1-3l4.3-0.6l1.9-3.9l1.9,3.9l4.3,0.6l-3.1,3l0.7,4.3L73.5,33.7z"/>
		<path class="st3" d="M87.5,33.7l-3.8,2l0.7-4.3l-3.1-3l4.3-0.6l1.9-3.9l1.9,3.9l4.3,0.6l-3.1,3l0.7,4.3L87.5,33.7z"/>
	</g>
</g>
</svg>
